<svg xmlns="http://www.w3.org/2000/svg" version="1.1" xmlns:xlink="http://www.w3.org/1999/xlink" xmlns:svgjs="http://svgjs.dev/svgjs" width="1500" height="1500" viewBox="0 0 1500 1500"><rect width="1500" height="1500" fill="#000000"></rect><g transform="matrix(0.6666666666666666,0,0,0.6666666666666666,249.39393939393943,671.7855730198911)"><svg viewBox="0 0 396 62" data-background-color="#ece5d5" preserveAspectRatio="xMidYMid meet" height="234" width="1500" xmlns="http://www.w3.org/2000/svg" xmlns:xlink="http://www.w3.org/1999/xlink"><g id="tight-bounds" transform="matrix(1,0,0,1,0.2400000000000091,0.08522097927405525)"><svg viewBox="0 0 395.52 61.8295580414519" height="61.8295580414519" width="395.52"><g><svg viewBox="0 0 507.03333933226054 79.26185093849914" height="61.8295580414519" width="395.52"><g><rect width="5.172153050552837" height="68.82360428813239" x="92.80151861010341" y="5.219123325183375" fill="#ffffff" opacity="1" stroke-width="0" stroke="transparent" fill-opacity="1" class="rect-qz-0" data-fill-palette-color="primary" rx="1%" id="qz-0" data-palette-color="#3d3028"></rect></g><g transform="matrix(1,0,0,1,111.51333933226053,10.95442368252774)"><svg viewBox="0 0 395.52 57.35300357344366" height="57.35300357344366" width="395.52"><g id="textblocktransform"><svg viewBox="0 0 395.52 57.35300357344366" height="57.35300357344366" width="395.52" id="textblock"><g><svg viewBox="0 0 395.52 57.35300357344366" height="57.35300357344366" width="395.52"><g transform="matrix(1,0,0,1,0,0)"><svg width="395.52" viewBox="1.8 -37.9 265.82 38.55" height="57.35300357344366" data-palette-color="#3d3028"><path d="M1.8 0L1.8-1.8 21.1-30.1 1.8-30.1 1.8-34.1 27.8-34.1 27.8-32.4 8.35-4 27.35-4 27.35 0 1.8 0ZM33.8 0L33.8-34.1 38-34.1 38-18.35 52.3-34.1 57.55-34.1 44.45-19.8 59.55 0 54.3 0 41.55-16.7 38-12.8 38 0 33.8 0ZM93.19-33.45L92.49-29.4Q91.29-29.7 89.99-29.95L89.99-29.95Q88.84-30.2 87.37-30.38 85.89-30.55 84.29-30.55L84.29-30.55Q80.59-30.55 78.99-29.43 77.39-28.3 77.39-25.95L77.39-25.95Q77.44-24.1 78.74-22.83 80.04-21.55 81.99-20.48 83.94-19.4 86.27-18.38 88.59-17.35 90.54-16.03 92.49-14.7 93.82-12.93 95.14-11.15 95.14-8.6L95.14-8.6Q95.14-5.65 93.87-3.85 92.59-2.05 90.64-1.05 88.69-0.05 86.37 0.3 84.04 0.65 81.94 0.65L81.94 0.65Q79.94 0.65 78.29 0.4 76.64 0.15 75.44-0.15L75.44-0.15Q74.04-0.5 72.89-0.95L72.89-0.95 73.89-5Q75.04-4.5 76.34-4.15L76.34-4.15Q77.49-3.85 78.92-3.6 80.34-3.35 81.94-3.35L81.94-3.35Q83.89-3.35 85.52-3.6 87.14-3.85 88.34-4.4 89.54-4.95 90.22-5.85 90.89-6.75 90.89-8.05L90.89-8.05Q90.84-10 89.62-11.23 88.39-12.45 86.37-13.58 84.34-14.7 82.02-15.75 79.69-16.8 77.74-18.15 75.79-19.5 74.47-21.35 73.14-23.2 73.14-25.95L73.14-25.95Q73.14-27.55 73.69-29.1 74.24-30.65 75.57-31.85 76.89-33.05 79.02-33.8 81.14-34.55 84.29-34.55L84.29-34.55Q86.09-34.55 87.72-34.38 89.34-34.2 90.54-34L90.54-34Q91.94-33.75 93.19-33.45L93.19-33.45ZM103.39-12.45L103.39-12.45Q103.39-7.6 105.57-5.23 107.74-2.85 111.44-2.85L111.44-2.85Q115.09-2.85 117.14-5.2 119.19-7.55 119.19-12.25L119.19-12.25Q119.19-17.25 117.02-19.7 114.84-22.15 111.09-22.15L111.09-22.15Q107.34-22.15 105.37-19.73 103.39-17.3 103.39-12.45ZM99.14-12.5L99.14-12.5Q99.14-16.3 100.34-18.82 101.54-21.35 103.39-22.88 105.24-24.4 107.37-25.03 109.49-25.65 111.39-25.65L111.39-25.65Q113.19-25.65 115.32-25.08 117.44-24.5 119.24-23.03 121.04-21.55 122.24-19.07 123.44-16.6 123.44-12.8L123.44-12.8Q123.44-8.85 122.22-6.25 120.99-3.65 119.14-2.13 117.29-0.6 115.14 0.03 112.99 0.65 111.14 0.65L111.14 0.65Q109.24 0.65 107.14 0.05 105.04-0.55 103.27-2.02 101.49-3.5 100.32-6.05 99.14-8.6 99.14-12.5ZM129.24 0L129.24-37.45 133.24-37.9 133.24 0 129.24 0ZM155.78 0.4L155.49-2.75 155.39-2.75Q154.94-2.4 154.09-1.83 153.24-1.25 152.14-0.7 151.03-0.15 149.71 0.25 148.39 0.65 147.03 0.65L147.03 0.65Q145.19 0.65 143.89 0.18 142.59-0.3 141.78-1.4 140.99-2.5 140.64-4.3 140.28-6.1 140.28-8.8L140.28-8.8 140.28-25.15 144.28-25.15 144.28-9.4Q144.28-7.9 144.34-6.7 144.39-5.5 144.69-4.65 144.99-3.8 145.66-3.33 146.34-2.85 147.59-2.85L147.59-2.85Q148.89-2.85 150.28-3.4 151.69-3.95 152.84-4.65L152.84-4.65Q154.19-5.45 155.49-6.45L155.49-6.45 155.49-25.15 159.49-25.15 159.49-3.25Q159.54-1.45 159.74 0L159.74 0 155.78 0.4ZM168.58-32.15L172.58-32.65 172.58-25.15 179.83-25.15 179.83-21.9 172.58-21.9 172.58-8.55Q172.58-6.9 172.66-5.8 172.73-4.7 172.98-4.05 173.23-3.4 173.68-3.13 174.13-2.85 174.83-2.85L174.83-2.85Q176.73-2.9 179.23-4.25L179.23-4.25 180.43-1.2Q178.78-0.1 177.36 0.28 175.93 0.65 174.53 0.65L174.53 0.65Q171.23 0.65 169.91-1.23 168.58-3.1 168.58-7.45L168.58-7.45 168.58-21.9 163.98-21.9 163.98-25.15 168.58-25.15 168.58-32.15ZM184.93 0L184.93-25.2 188.93-25.65 188.93 0 184.93 0ZM184.28-32.35L184.28-32.35Q184.28-33.5 185.06-34.27 185.83-35.05 186.98-35.05L186.98-35.05Q188.18-35.05 189.01-34.27 189.83-33.5 189.83-32.35L189.83-32.35Q189.83-31.2 189.01-30.43 188.18-29.65 186.98-29.65L186.98-29.65Q185.83-29.65 185.06-30.43 184.28-31.2 184.28-32.35ZM198.98-12.45L198.98-12.45Q198.98-7.6 201.15-5.23 203.33-2.85 207.03-2.85L207.03-2.85Q210.68-2.85 212.73-5.2 214.78-7.55 214.78-12.25L214.78-12.25Q214.78-17.25 212.6-19.7 210.43-22.15 206.68-22.15L206.68-22.15Q202.93-22.15 200.95-19.73 198.98-17.3 198.98-12.45ZM194.73-12.5L194.73-12.5Q194.73-16.3 195.93-18.82 197.13-21.35 198.98-22.88 200.83-24.4 202.95-25.03 205.08-25.65 206.98-25.65L206.98-25.65Q208.78-25.65 210.9-25.08 213.03-24.5 214.83-23.03 216.63-21.55 217.83-19.07 219.03-16.6 219.03-12.8L219.03-12.8Q219.03-8.85 217.8-6.25 216.58-3.65 214.73-2.13 212.88-0.6 210.73 0.03 208.58 0.65 206.73 0.65L206.73 0.65Q204.83 0.65 202.73 0.05 200.63-0.55 198.85-2.02 197.08-3.5 195.9-6.05 194.73-8.6 194.73-12.5ZM224.88 0L224.88-20.15Q224.93-21.2 224.63-24.7L224.63-24.7 228.33-25.2 228.88-22Q230.38-23 231.85-23.75 233.33-24.5 234.88-25.08 236.43-25.65 237.88-25.65L237.88-25.65Q239.93-25.65 241.3-25.18 242.68-24.7 243.53-23.6 244.38-22.5 244.75-20.7 245.13-18.9 245.13-16.2L245.13-16.2 245.13 0 241.13 0 241.13-15.75Q241.13-17.25 241.08-18.43 241.03-19.6 240.65-20.43 240.28-21.25 239.5-21.7 238.73-22.15 237.33-22.15L237.33-22.15Q236.03-22.15 234.58-21.58 233.13-21 231.73-20.25 230.33-19.5 228.88-18.5L228.88-18.5 228.88 0 224.88 0ZM266.47-24.6L265.77-21.05Q263.67-21.7 262.05-21.93 260.42-22.15 259.07-22.15L259.07-22.15Q257.32-22.15 256.15-21.3 254.97-20.45 254.97-19.1L254.97-19.1Q255.02-17.9 256.02-17.05 257.02-16.2 258.35-15.53 259.67-14.85 261.3-14.05 262.92-13.25 264.35-12.25 265.77-11.25 266.67-9.85 267.57-8.45 267.62-6.5L267.62-6.5Q267.57-4.4 266.7-3.03 265.82-1.65 264.45-0.83 263.07 0 261.47 0.33 259.87 0.65 258.47 0.65L258.47 0.65Q256.67 0.65 254.75 0.45 252.82 0.25 250.62-0.4L250.62-0.4 251.37-4Q253.62-3.4 255.47-3.13 257.32-2.85 258.52-2.85L258.52-2.85Q259.42-2.85 260.3-3.05 261.17-3.25 261.87-3.63 262.57-4 263-4.6 263.42-5.2 263.42-5.95L263.42-5.95Q263.37-7.35 262.47-8.33 261.57-9.3 260.15-10.08 258.72-10.85 257.1-11.63 255.47-12.4 254.05-13.43 252.62-14.45 251.67-15.88 250.72-17.3 250.72-19.4L250.72-19.4Q250.72-20.9 251.5-22.08 252.27-23.25 253.5-24.03 254.72-24.8 256.2-25.23 257.67-25.65 259.07-25.65L259.07-25.65Q260.52-25.65 262.32-25.43 264.12-25.2 266.47-24.6L266.47-24.6Z" opacity="1" transform="matrix(1,0,0,1,0,0)" fill="#ffffff" class="wordmark-text-0" data-fill-palette-color="primary" id="text-0"></path></svg></g></svg></g></svg></g></svg></g><g><svg viewBox="0 0 79.26185093849914 79.26185093849914" height="79.26185093849914" width="79.26185093849914"><g><svg xmlns="http://www.w3.org/2000/svg" xmlns:xlink="http://www.w3.org/1999/xlink" version="1.1" x="0" y="0" viewBox="1.5999999999999996 1.5999999999999996 96.7 96.7" enable-background="new 0 0 100 100" xml:space="preserve" height="79.26185093849914" width="79.26185093849914" class="icon-icon-0" data-fill-palette-color="accent" id="icon-0"><path d="M98.3 45.7c0-1.8-1.4-3.2-3.2-3.2h-7.2c-1-5.1-3-9.8-5.8-14l5.1-5.1c1.2-1.2 1.2-3.3 0-4.5l-6.1-6.1c-1.2-1.2-3.3-1.2-4.5 0l-5.1 5.1c-4.2-2.8-8.9-4.8-14-5.8V4.8c0-1.8-1.4-3.2-3.2-3.2h-8.7c-1.8 0-3.2 1.4-3.2 3.2v7.2c-5.1 1-9.8 3-14 5.8l-5.1-5.1c-1.2-1.2-3.3-1.2-4.5 0l-6.1 6.1c-1.2 1.2-1.2 3.3 0 4.5l5.1 5.1c-2.8 4.2-4.8 8.9-5.8 14H4.8c-1.8 0-3.2 1.4-3.2 3.2v8.7c0 1.8 1.4 3.2 3.2 3.2h7.2c1 5.1 3 9.8 5.8 14l-5.1 5.1c-1.2 1.2-1.2 3.3 0 4.5l6.1 6.1c1.2 1.2 3.3 1.2 4.5 0l5.1-5.1c4.2 2.8 8.9 4.8 14 5.8v7.2c0 1.8 1.4 3.2 3.2 3.2h8.7c1.8 0 3.2-1.4 3.2-3.2v-7.2c5.1-1 9.8-3 14-5.8l5.1 5.1c1.2 1.2 3.3 1.2 4.5 0l6.1-6.1c1.2-1.2 1.2-3.3 0-4.5l-5.1-5.1c2.8-4.2 4.8-8.9 5.8-14h7.2c1.8 0 3.2-1.4 3.2-3.2V45.7zM50 75.4C36 75.4 24.6 64 24.6 50 24.6 36 36 24.6 50 24.6 64 24.6 75.4 36 75.4 50 75.4 64 64 75.4 50 75.4zM60.2 36.6l6.2 6.3L52.1 57.1l-6.3 6.2-6.2-6.3-6-6 6.3-6.2 6 6L60.2 36.6z" fill="#ffffff" data-fill-palette-color="accent"></path></svg></g></svg></g></svg></g><defs></defs></svg><rect width="395.52" height="61.8295580414519" fill="none" stroke="none" visibility="hidden"></rect></g></svg></g></svg>